<mxfile host="app.diagrams.net" agent="Mozilla/5.0 (Macintosh; Intel Mac OS X 10_15_7) AppleWebKit/537.36 (KHTML, like Gecko) Chrome/141.0.0.0 Safari/537.36" version="28.2.7">
  <diagram name="Page-1" id="fuQ6Dq5Z8nhnoQuYy7pQ">
    <mxGraphModel dx="860" dy="580" grid="1" gridSize="10" guides="1" tooltips="1" connect="1" arrows="1" fold="1" page="1" pageScale="1" pageWidth="850" pageHeight="1100" math="0" shadow="0">
      <root>
        <mxCell id="0" />
        <mxCell id="1" parent="0" />
        <mxCell id="npZcPDsccjlgXL80ouJM-8" style="edgeStyle=orthogonalEdgeStyle;rounded=0;orthogonalLoop=1;jettySize=auto;html=1;fontSize=12;startSize=8;endSize=8;" edge="1" parent="1" source="npZcPDsccjlgXL80ouJM-5" target="npZcPDsccjlgXL80ouJM-7">
          <mxGeometry relative="1" as="geometry">
            <Array as="points">
              <mxPoint x="150" y="100" />
            </Array>
          </mxGeometry>
        </mxCell>
        <mxCell id="npZcPDsccjlgXL80ouJM-12" style="edgeStyle=orthogonalEdgeStyle;rounded=0;orthogonalLoop=1;jettySize=auto;html=1;fontSize=12;startSize=8;endSize=8;" edge="1" parent="1" source="npZcPDsccjlgXL80ouJM-5" target="npZcPDsccjlgXL80ouJM-10">
          <mxGeometry relative="1" as="geometry">
            <Array as="points">
              <mxPoint x="150" y="390" />
            </Array>
          </mxGeometry>
        </mxCell>
        <mxCell id="npZcPDsccjlgXL80ouJM-28" value="data_books" style="edgeLabel;html=1;align=center;verticalAlign=middle;resizable=0;points=[];fontSize=12;" vertex="1" connectable="0" parent="npZcPDsccjlgXL80ouJM-12">
          <mxGeometry x="0.362" y="3" relative="1" as="geometry">
            <mxPoint as="offset" />
          </mxGeometry>
        </mxCell>
        <mxCell id="npZcPDsccjlgXL80ouJM-19" style="edgeStyle=orthogonalEdgeStyle;rounded=0;orthogonalLoop=1;jettySize=auto;html=1;fontSize=12;startSize=8;endSize=8;" edge="1" parent="1" source="npZcPDsccjlgXL80ouJM-5" target="npZcPDsccjlgXL80ouJM-18">
          <mxGeometry relative="1" as="geometry">
            <Array as="points">
              <mxPoint x="80" y="200" />
              <mxPoint x="80" y="530" />
            </Array>
          </mxGeometry>
        </mxCell>
        <mxCell id="npZcPDsccjlgXL80ouJM-5" value="Patron" style="whiteSpace=wrap;html=1;align=center;" vertex="1" parent="1">
          <mxGeometry x="100" y="180" width="100" height="40" as="geometry" />
        </mxCell>
        <mxCell id="npZcPDsccjlgXL80ouJM-11" style="edgeStyle=orthogonalEdgeStyle;rounded=0;orthogonalLoop=1;jettySize=auto;html=1;fontSize=12;startSize=8;endSize=8;" edge="1" parent="1" source="npZcPDsccjlgXL80ouJM-6" target="npZcPDsccjlgXL80ouJM-9">
          <mxGeometry relative="1" as="geometry" />
        </mxCell>
        <mxCell id="npZcPDsccjlgXL80ouJM-25" value="data_loans" style="edgeLabel;html=1;align=center;verticalAlign=middle;resizable=0;points=[];fontSize=12;" vertex="1" connectable="0" parent="npZcPDsccjlgXL80ouJM-11">
          <mxGeometry x="-0.3798" relative="1" as="geometry">
            <mxPoint as="offset" />
          </mxGeometry>
        </mxCell>
        <mxCell id="npZcPDsccjlgXL80ouJM-6" value="Admin" style="whiteSpace=wrap;html=1;align=center;" vertex="1" parent="1">
          <mxGeometry x="580" y="180" width="100" height="40" as="geometry" />
        </mxCell>
        <mxCell id="npZcPDsccjlgXL80ouJM-13" style="edgeStyle=none;curved=1;rounded=0;orthogonalLoop=1;jettySize=auto;html=1;fontSize=12;startSize=8;endSize=8;" edge="1" parent="1" source="npZcPDsccjlgXL80ouJM-7" target="npZcPDsccjlgXL80ouJM-9">
          <mxGeometry relative="1" as="geometry" />
        </mxCell>
        <mxCell id="npZcPDsccjlgXL80ouJM-7" value="P.1 borrow books" style="ellipse;whiteSpace=wrap;html=1;aspect=fixed;" vertex="1" parent="1">
          <mxGeometry x="385" y="60" width="80" height="80" as="geometry" />
        </mxCell>
        <mxCell id="npZcPDsccjlgXL80ouJM-14" style="edgeStyle=none;curved=1;rounded=0;orthogonalLoop=1;jettySize=auto;html=1;fontSize=12;startSize=8;endSize=8;" edge="1" parent="1" source="npZcPDsccjlgXL80ouJM-9" target="npZcPDsccjlgXL80ouJM-10">
          <mxGeometry relative="1" as="geometry" />
        </mxCell>
        <mxCell id="npZcPDsccjlgXL80ouJM-21" style="edgeStyle=orthogonalEdgeStyle;rounded=0;orthogonalLoop=1;jettySize=auto;html=1;fontSize=12;startSize=8;endSize=8;" edge="1" parent="1" source="npZcPDsccjlgXL80ouJM-9" target="npZcPDsccjlgXL80ouJM-16">
          <mxGeometry relative="1" as="geometry">
            <Array as="points">
              <mxPoint x="260" y="240" />
            </Array>
          </mxGeometry>
        </mxCell>
        <mxCell id="npZcPDsccjlgXL80ouJM-23" value="data_loans" style="edgeLabel;html=1;align=center;verticalAlign=middle;resizable=0;points=[];fontSize=12;" vertex="1" connectable="0" parent="npZcPDsccjlgXL80ouJM-21">
          <mxGeometry x="-0.0249" relative="1" as="geometry">
            <mxPoint as="offset" />
          </mxGeometry>
        </mxCell>
        <mxCell id="npZcPDsccjlgXL80ouJM-9" value="P.2 record loans" style="ellipse;whiteSpace=wrap;html=1;aspect=fixed;" vertex="1" parent="1">
          <mxGeometry x="385" y="200" width="80" height="80" as="geometry" />
        </mxCell>
        <mxCell id="npZcPDsccjlgXL80ouJM-31" style="edgeStyle=orthogonalEdgeStyle;rounded=0;orthogonalLoop=1;jettySize=auto;html=1;fontSize=12;startSize=8;endSize=8;jumpStyle=arc;jumpSize=6;" edge="1" parent="1" source="npZcPDsccjlgXL80ouJM-10" target="npZcPDsccjlgXL80ouJM-15">
          <mxGeometry relative="1" as="geometry">
            <Array as="points">
              <mxPoint x="490" y="390" />
              <mxPoint x="490" y="310" />
              <mxPoint x="730" y="310" />
              <mxPoint x="730" y="100" />
            </Array>
          </mxGeometry>
        </mxCell>
        <mxCell id="npZcPDsccjlgXL80ouJM-32" value="data_books" style="edgeLabel;html=1;align=center;verticalAlign=middle;resizable=0;points=[];fontSize=12;" vertex="1" connectable="0" parent="npZcPDsccjlgXL80ouJM-31">
          <mxGeometry x="-0.1629" y="1" relative="1" as="geometry">
            <mxPoint as="offset" />
          </mxGeometry>
        </mxCell>
        <mxCell id="npZcPDsccjlgXL80ouJM-10" value="P.3 return books" style="ellipse;whiteSpace=wrap;html=1;aspect=fixed;" vertex="1" parent="1">
          <mxGeometry x="385" y="350" width="80" height="80" as="geometry" />
        </mxCell>
        <mxCell id="npZcPDsccjlgXL80ouJM-26" style="edgeStyle=orthogonalEdgeStyle;rounded=0;orthogonalLoop=1;jettySize=auto;html=1;fontSize=12;startSize=8;endSize=8;" edge="1" parent="1" source="npZcPDsccjlgXL80ouJM-15" target="npZcPDsccjlgXL80ouJM-7">
          <mxGeometry relative="1" as="geometry" />
        </mxCell>
        <mxCell id="npZcPDsccjlgXL80ouJM-27" value="data_books" style="edgeLabel;html=1;align=center;verticalAlign=middle;resizable=0;points=[];fontSize=12;" vertex="1" connectable="0" parent="npZcPDsccjlgXL80ouJM-26">
          <mxGeometry x="0.0134" y="-2" relative="1" as="geometry">
            <mxPoint as="offset" />
          </mxGeometry>
        </mxCell>
        <mxCell id="npZcPDsccjlgXL80ouJM-15" value="books" style="shape=partialRectangle;whiteSpace=wrap;html=1;left=0;right=0;fillColor=none;" vertex="1" parent="1">
          <mxGeometry x="585" y="75" width="90" height="50" as="geometry" />
        </mxCell>
        <mxCell id="npZcPDsccjlgXL80ouJM-22" style="edgeStyle=orthogonalEdgeStyle;rounded=0;orthogonalLoop=1;jettySize=auto;html=1;fontSize=12;startSize=8;endSize=8;" edge="1" parent="1" source="npZcPDsccjlgXL80ouJM-16" target="npZcPDsccjlgXL80ouJM-9">
          <mxGeometry relative="1" as="geometry">
            <Array as="points">
              <mxPoint x="357" y="160" />
              <mxPoint x="357" y="220" />
            </Array>
          </mxGeometry>
        </mxCell>
        <mxCell id="npZcPDsccjlgXL80ouJM-24" value="data_loans" style="edgeLabel;html=1;align=center;verticalAlign=middle;resizable=0;points=[];fontSize=12;" vertex="1" connectable="0" parent="npZcPDsccjlgXL80ouJM-22">
          <mxGeometry x="-0.1903" relative="1" as="geometry">
            <mxPoint as="offset" />
          </mxGeometry>
        </mxCell>
        <mxCell id="npZcPDsccjlgXL80ouJM-16" value="loans" style="shape=partialRectangle;whiteSpace=wrap;html=1;left=0;right=0;fillColor=none;" vertex="1" parent="1">
          <mxGeometry x="230" y="140" width="90" height="50" as="geometry" />
        </mxCell>
        <mxCell id="npZcPDsccjlgXL80ouJM-29" style="edgeStyle=orthogonalEdgeStyle;rounded=0;orthogonalLoop=1;jettySize=auto;html=1;fontSize=12;startSize=8;endSize=8;jumpStyle=arc;jumpSize=13;" edge="1" parent="1" source="npZcPDsccjlgXL80ouJM-17" target="npZcPDsccjlgXL80ouJM-9">
          <mxGeometry relative="1" as="geometry">
            <Array as="points">
              <mxPoint x="575" y="260" />
            </Array>
          </mxGeometry>
        </mxCell>
        <mxCell id="npZcPDsccjlgXL80ouJM-30" value="data_patrons" style="edgeLabel;html=1;align=center;verticalAlign=middle;resizable=0;points=[];fontSize=12;" vertex="1" connectable="0" parent="npZcPDsccjlgXL80ouJM-29">
          <mxGeometry x="0.2269" relative="1" as="geometry">
            <mxPoint as="offset" />
          </mxGeometry>
        </mxCell>
        <mxCell id="npZcPDsccjlgXL80ouJM-17" value="patrons" style="shape=partialRectangle;whiteSpace=wrap;html=1;left=0;right=0;fillColor=none;" vertex="1" parent="1">
          <mxGeometry x="530" y="360" width="90" height="50" as="geometry" />
        </mxCell>
        <mxCell id="npZcPDsccjlgXL80ouJM-20" style="edgeStyle=orthogonalEdgeStyle;rounded=0;orthogonalLoop=1;jettySize=auto;html=1;fontSize=12;startSize=8;endSize=8;" edge="1" parent="1" source="npZcPDsccjlgXL80ouJM-18" target="npZcPDsccjlgXL80ouJM-17">
          <mxGeometry relative="1" as="geometry" />
        </mxCell>
        <mxCell id="npZcPDsccjlgXL80ouJM-18" value="P.4 register" style="ellipse;whiteSpace=wrap;html=1;aspect=fixed;" vertex="1" parent="1">
          <mxGeometry x="385" y="490" width="80" height="80" as="geometry" />
        </mxCell>
      </root>
    </mxGraphModel>
  </diagram>
</mxfile>
